# xmcd
#
# Track frame offsets:
#	150
#	10428
#	23850
#	34764
#	47150
#	58383
#	68552
#	80216
#	95147
#	106717
#	117556
#
# Disc length: 1737 seconds
#
# Revision: 0
# Processed by: cddbd v1.5.2PL0 Copyright (c) Steve Scherf et al.
# Submitted via: EasyCDDAExtractor 16.0.1.1
#
DISCID=9906c70b
DTITLE=Ace Cannon - Cannon Country
DYEAR=1976
DGENRE=Instrumental
TTITLE0=Easy Loving
TTITLE1=Ramblin' Rose
TTITLE2=Crazy Arms
TTITLE3=Red Red Wine
TTITLE4=With Pen In Hand
TTITLE5=Misty Blue
TTITLE6=Lovesick Blues
TTITLE7=Don't Touch Me
TTITLE8=Hello Darlin'
TTITLE9=Gentle on My Mind
TTITLE10=Cold Cold Heart
EXTD=
EXTT0=
EXTT1=
EXTT2=
EXTT3=
EXTT4=
EXTT5=
EXTT6=
EXTT7=
EXTT8=
EXTT9=
EXTT10=
PLAYORDER=
